# xmcd
#
# Track frame offsets:
#	183
#	23975
#	39885
#	62268
#	75380
#	90875
#	105305
#	129353
#	148280
#	166048
#	183720
#	205883
#	218050
#
# Disc length: 3216 seconds
#
# Revision: 0
# Processed by: cddbd v1.4PL0 Copyright (c) Steve Scherf et al.
# Submitted via: EasyCDDAExtractor 4.6.0.1
#
DISCID=9c0c8e0d
DTITLE=Various Artist - Italia Romantica (The Romantic Italy)
DYEAR=1900
DGENRE=Romantic
TTITLE0=Ho Capito Che Ti Amo
TTITLE1=Ciao Amore Ciao - L'Ultimo Romantico - Volare
TTITLE2=Sapore di Sale - Quando M'Nnamoro
TTITLE3=Ti Voglio Tanto Bene
TTITLE4=Io Che Amo Solo Me
TTITLE5=Non ho l'he et a per amarti
TTITLE6=Champagne - Come Te Non C'enessuno
TTITLE7=Non Pensare a Me - Si Fa Sera
TTITLE8=Se Non Avessi Piu Te - In Ginocchio Da Te
TTITLE9=L'Italiano
TTITLE10=Caruso
TTITLE11=Picolissima Serenata
TTITLE12=Torna a Surriento - Vurria - O Sole Mio
EXTD=
EXTT0=
EXTT1=
EXTT2=
EXTT3=
EXTT4=
EXTT5=
EXTT6=
EXTT7=
EXTT8=
EXTT9=
EXTT10=
EXTT11=
EXTT12=
PLAYORDER=
